<?xml version="1.0" encoding="UTF-8"?>
<svg width="400" height="300" viewBox="0 0 400 300" fill="none" xmlns="http://www.w3.org/2000/svg">
  <rect width="400" height="300" fill="#F5F5F5"/>
  <path d="M200 130C188.954 130 180 138.954 180 150C180 161.046 188.954 170 200 170C211.046 170 220 161.046 220 150C220 138.954 211.046 130 200 130ZM200 160C194.477 160 190 155.523 190 150C190 144.477 194.477 140 200 140C205.523 140 210 144.477 210 150C210 155.523 205.523 160 200 160Z" fill="#0F2B49"/>
  <path d="M180 180L160 200M220 180L240 200" stroke="#0F2B49" stroke-width="2"/>
  <text x="200" y="220" text-anchor="middle" fill="#4A4A4A" font-family="Arial" font-size="14">Image not found</text>
</svg>